<?xml version="1.0" standalone="no"?>
<!DOCTYPE svg PUBLIC "-//W3C//DTD SVG 20010904//EN"
 "http://www.w3.org/TR/2001/REC-SVG-20010904/DTD/svg10.dtd">
<svg version="1.0" xmlns="http://www.w3.org/2000/svg"
 width="167.000000pt" height="167.000000pt" viewBox="0 0 167.000000 167.000000"
 preserveAspectRatio="xMidYMid meet">
<metadata>
Created by potrace 1.14, written by Peter Selinger 2001-2017
</metadata>
<g transform="translate(0.000000,167.000000) scale(0.100000,-0.100000)"
fill="#000000" stroke="none">
<path d="M688 1650 c-185 -48 -321 -165 -381 -328 -30 -80 -28 -224 2 -304 15
-38 100 -166 247 -370 284 -394 264 -366 264 -372 0 -3 -15 -5 -32 -4 -57 1
-78 -2 -78 -12 0 -5 9 -10 19 -10 22 0 40 -20 19 -21 -7 0 -2 -5 12 -10 27
-11 174 -10 205 1 16 6 11 9 -25 18 -25 5 -35 10 -22 11 28 1 19 21 -9 21 -26
0 -24 10 15 61 43 57 371 511 409 567 88 129 95 311 19 457 -48 93 -145 186
-252 243 -129 69 -278 87 -412 52z m291 -140 c70 -19 138 -58 189 -110 46 -47
97 -129 85 -140 -3 -3 -8 1 -11 9 -2 8 -18 28 -34 45 l-30 31 -167 1 c-93 0
-178 -3 -189 -7 -11 -4 -39 -33 -62 -63 -43 -56 -60 -68 -60 -42 0 23 -84 16
-88 -7 -3 -12 6 -21 26 -28 29 -10 30 -12 18 -42 -6 -18 -10 -43 -9 -57 2 -14
5 -59 7 -102 2 -42 7 -81 10 -87 11 -17 96 -14 102 4 5 13 39 15 220 15 124 0
214 -4 214 -9 0 -15 -89 -87 -134 -110 -144 -71 -321 -61 -454 26 -204 135
-227 410 -48 576 104 96 273 136 415 97z"/>
<path d="M115 255 c-35 -34 -32 -67 10 -104 86 -75 209 -111 480 -138 89 -9
397 -9 495 0 284 27 480 95 480 167 0 9 -19 35 -42 58 l-41 42 -18 -29 c-34
-57 -181 -100 -404 -118 -170 -15 -535 -7 -625 13 -14 3 -36 7 -50 10 -128 24
-217 59 -212 82 1 8 -2 10 -8 7 -7 -4 -14 2 -17 14 -7 27 -18 27 -48 -4z"/>
<path d="M362 258 c-17 -17 -15 -25 9 -49 47 -47 178 -64 494 -63 182 0 297 6
364 19 43 8 101 29 101 36 0 13 -44 57 -60 60 -8 2 -27 -5 -41 -14 -48 -32
-106 -39 -364 -42 -279 -4 -434 13 -466 51 -14 17 -22 17 -37 2z m372 -87 c4
-5 -1 -8 -9 -7 -21 3 -31 16 -12 16 9 0 18 -4 21 -9z m116 -4 c0 -8 -87 -3
-96 5 -2 3 18 4 46 4 27 -1 50 -5 50 -9z m80 2 c0 -4 -13 -6 -29 -5 -16 0 -28
3 -26 6 5 8 55 7 55 -1z m40 7 c0 -3 -4 -8 -10 -11 -5 -3 -10 -1 -10 4 0 6 5
11 10 11 6 0 10 -2 10 -4z m46 -8 c3 -4 -1 -5 -10 -4 -8 1 -18 5 -22 8 -3 4 1
5 10 4 8 -1 18 -5 22 -8z m41 6 c-3 -3 -12 -4 -19 -1 -8 3 -5 6 6 6 11 1 17
-2 13 -5z m70 0 c-3 -3 -12 -4 -19 -1 -8 3 -5 6 6 6 11 1 17 -2 13 -5z"/>
</g>
</svg>
