<?xml version="1.0" standalone="no"?>
<!DOCTYPE svg PUBLIC "-//W3C//DTD SVG 20010904//EN"
 "http://www.w3.org/TR/2001/REC-SVG-20010904/DTD/svg10.dtd">
<svg version="1.0" xmlns="http://www.w3.org/2000/svg"
 width="97.000000pt" height="97.000000pt" viewBox="0 0 97.000000 97.000000"
 preserveAspectRatio="xMidYMid meet">
<metadata>
Created by potrace 1.14, written by Peter Selinger 2001-2017
</metadata>
<g transform="translate(0.000000,97.000000) scale(0.100000,-0.100000)"
fill="#000000" stroke="none">
<path d="M80 794 l0 -34 65 0 c36 0 66 4 66 10 1 6 2 17 2 25 0 8 -1 20 -2 25
0 6 -27 10 -66 9 l-65 -2 0 -33z"/>
<path d="M286 822 c-2 -4 -4 -19 -4 -34 0 -25 4 -28 35 -28 33 0 34 -2 31 -32
-3 -33 -3 -33 -68 -38 -61 -5 -65 -7 -68 -31 -2 -15 3 -28 10 -31 7 -2 84 -4
170 -3 154 1 157 0 140 -18 -9 -11 -68 -71 -131 -135 -121 -124 -108 -116
-209 -121 -9 -1 -12 -12 -10 -34 3 -28 6 -32 33 -32 27 0 30 -4 35 -38 3 -21
9 -37 15 -37 12 2 24 -31 18 -48 -3 -8 5 -12 23 -13 34 -1 599 -1 631 0 21 1
22 5 20 61 -1 33 0 60 3 60 3 0 4 18 2 40 -3 28 -9 40 -21 41 -9 1 -67 1 -128
1 -62 0 -113 3 -113 7 0 3 58 64 130 136 145 144 134 121 127 285 l-2 45 -332
2 c-183 1 -334 -1 -337 -5z"/>
<path d="M53 692 c-40 -3 -43 -5 -43 -32 0 -33 8 -37 80 -35 52 1 55 2 57 28
3 39 -11 45 -94 39z"/>
<path d="M16 280 c-2 -3 -2 -18 -2 -35 1 -28 3 -29 46 -28 25 1 48 2 51 2 3 1
5 15 5 31 0 17 -2 30 -5 31 -23 4 -93 3 -95 -1z"/>
<path d="M150 184 c0 -35 11 -43 48 -36 19 4 22 10 19 36 -3 27 -7 31 -35 32
-30 0 -32 -2 -32 -32z"/>
</g>
</svg>
